<?xml version="1.0" encoding="UTF-8"?>
<!DOCTYPE svg PUBLIC "-//W3C//DTD SVG 1.1//EN" "http://www.w3.org/Graphics/SVG/1.1/DTD/svg11.dtd">
<svg xmlns="http://www.w3.org/2000/svg" version="1.1" width="541px" height="541px"
    style="shape-rendering:geometricPrecision; text-rendering:geometricPrecision; image-rendering:optimizeQuality; fill-rule:evenodd; clip-rule:evenodd"
    xmlns:xlink="http://www.w3.org/1999/xlink">
    <g>
        <path style="opacity:0.996" fill="#fefeff"
            d="M 246.5,-0.5 C 262.167,-0.5 277.833,-0.5 293.5,-0.5C 397.613,12.615 472.446,66.2817 518,160.5C 529.91,188.144 537.41,216.81 540.5,246.5C 540.5,262.167 540.5,277.833 540.5,293.5C 527.385,397.613 473.718,472.446 379.5,518C 351.856,529.91 323.19,537.41 293.5,540.5C 277.833,540.5 262.167,540.5 246.5,540.5C 142.387,527.385 67.5538,473.718 22,379.5C 10.0905,351.856 2.59049,323.19 -0.5,293.5C -0.5,277.833 -0.5,262.167 -0.5,246.5C 12.615,142.387 66.2817,67.5538 160.5,22C 188.144,10.0905 216.81,2.59049 246.5,-0.5 Z" />
    </g>
    <g>
        <path style="opacity:1" fill="#8c52ff"
            d="M 259.5,58.5 C 274.167,58.5 288.833,58.5 303.5,58.5C 303.5,69.5 303.5,80.5 303.5,91.5C 223.691,84.5779 162.024,114.245 118.5,180.5C 92.6514,226.757 87.1514,275.423 102,326.5C 122.493,385.659 162.326,425.493 221.5,446C 248.383,452.971 275.716,455.471 303.5,453.5C 303.5,464.5 303.5,475.5 303.5,486.5C 229.571,492.037 167.071,468.37 116,415.5C 64.8534,354.559 49.8534,285.559 71,208.5C 95.1979,138.636 142.365,91.8024 212.5,68C 228.06,63.5882 243.727,60.4216 259.5,58.5 Z" />
    </g>
    <g>
        <path style="opacity:1" fill="#8c52ff"
            d="M 270.5,100.5 C 281.5,100.5 292.5,100.5 303.5,100.5C 303.5,111.5 303.5,122.5 303.5,133.5C 259.494,128.252 220.16,139.085 185.5,166C 137.228,211.749 124.728,265.916 148,328.5C 171.914,377.554 211.081,405.054 265.5,411C 278.162,411.5 290.829,411.667 303.5,411.5C 303.5,422.167 303.5,432.833 303.5,443.5C 230.947,450.304 173.614,424.47 131.5,366C 96.72,307.21 95.0534,247.543 126.5,187C 159.803,133.843 207.803,105.01 270.5,100.5 Z" />
    </g>
    <g>
        <path style="opacity:1" fill="#8201fe"
            d="M 268.5,197.5 C 280.546,197.458 292.213,199.458 303.5,203.5C 303.667,215.838 303.5,228.171 303,240.5C 293.077,229.86 280.91,226.027 266.5,229C 245.192,236.095 234.526,250.929 234.5,273.5C 235.11,293.944 245.11,307.444 264.5,314C 275.229,316.708 285.562,315.708 295.5,311C 298.667,309.167 301.167,306.667 303,303.5C 303.821,316.076 303.655,328.576 302.5,341C 266.5,354.771 236.667,346.604 213,316.5C 193.628,283.955 195.295,252.622 218,222.5C 231.776,207.862 248.609,199.528 268.5,197.5 Z" />
    </g>
</svg>