<svg class="svg-icon" viewBox="137 137 750 750" version="1.1" xmlns="http://www.w3.org/2000/svg">
    <path fill="rgba(255,255,255,0.5)"
        d="M512 134.09228516C303.24232483 134.09228516 134.09228516 303.24232483 134.09228516 512s169.15003968 377.90771484 377.90771484 377.90771484 377.90771484-169.15003968 377.90771484-377.90771484S720.75767517 134.09228516 512 134.09228516z m0 31.43174743c190.95240784 0 346.47596741 155.34187317 346.47596741 346.47596741 0 84.48417663-30.34162903 161.88258362-80.66876221 222.02078248-36.33728027-14.89828492-119.7313385-43.78642273-168.78666687-58.32133485-4.36047363-1.27180481-4.90553284-1.63517761-4.90553283-19.44044495 0-14.71659851 5.99565124-29.61488343 11.99130248-42.33293152 6.54071045-13.62648011 13.9898529-36.70065308 16.71514893-57.41290283 7.63082886-8.90263366 18.16864014-26.3445282 24.70935058-59.77482604 5.81396484-29.43319703 3.08866882-40.1526947-0.7267456-50.14544678-0.36337281-1.09011841-0.908432-2.18023682-1.09011841-3.08866882-1.45349121-6.90408326 0.54505921-42.69630432 5.63227845-70.49432373 3.45204163-19.07707214-0.908432-59.59313965-27.07127381-93.20512391-16.53346253-21.25730896-48.32858277-47.23846436-106.2865448-50.87219239h-31.79512024c-57.04953003 3.63372803-88.66296387 29.61488343-105.37811279 50.87219239-26.3445282 33.61198425-30.70500183 74.12805176-27.2529602 93.20512391 5.08721924 27.79801941 7.08576966 63.59024048 5.63227844 70.49432373-0.36337281 1.27180481-0.72674561 2.18023682-1.09011841 3.27035522-3.81541443 9.99275208-6.72239685 20.71224976-0.72674561 50.14544677 6.72239685 33.43029785 17.07852173 50.87219238 24.70935059 59.77482605 2.72529602 20.71224976 10.35612488 43.60473633 16.71514892 57.41290283 4.72384644 9.99275208 6.90408326 23.61923218 6.90408326 42.87799073 0 17.98695374-0.72674561 18.16864014-4.72384644 19.44044494-51.05387878 15.07997132-131.9043274 44.14979553-164.24450684 58.13964844-50.69050598-60.31988525-81.21382141-137.89997864-81.21382141-222.56584167 0-190.95240784 155.52355957-346.47596741 346.47596741-346.47596741z" />
</svg>